<?xml version="1.0" encoding="utf-8"?>
<!-- Generator: Adobe Illustrator 25.4.1, SVG Export Plug-In . SVG Version: 6.00 Build 0)  -->
<svg version="1.1" id="Layer_1" xmlns="http://www.w3.org/2000/svg" xmlns:xlink="http://www.w3.org/1999/xlink" x="0px" y="0px"
	 viewBox="0 0 650 620" style="enable-background:new 0 0 650 620;" xml:space="preserve">
<style type="text/css">
	.st0{clip-path:url(#SVGID_00000090254717145675695500000006089529724599645876_);fill:#707070;}
	.st1{clip-path:url(#SVGID_00000040536742052501186980000007389622340106052020_);fill:#FFFFFF;}
</style>
<g>
	<g>
		<defs>
			<rect id="SVGID_1_" x="-175.8" y="-189.5" width="1000" height="1000"/>
		</defs>
		<clipPath id="SVGID_00000028317146063508988180000000679624733564632747_">
			<use xlink:href="#SVGID_1_"  style="overflow:visible;"/>
		</clipPath>
		<path style="clip-path:url(#SVGID_00000028317146063508988180000000679624733564632747_);fill:#707070;" d="M464.6,538.6
			c-12.9,8.9-16.1,26.6-7.2,39.4c8.9,12.9,26.6,16.1,39.5,7.2c12.9-8.9,16.1-26.6,7.2-39.4C495.2,532.9,477.5,529.7,464.6,538.6
			 M299,588.1c-8,5.5-9.9,16.4-4.5,24.3c5.5,7.9,16.4,9.9,24.3,4.5c8-5.5,9.9-16.4,4.5-24.3C317.9,584.6,307,582.6,299,588.1
			 M97.9,506.8c1.5,6.8,8.2,11.1,15,9.7c6.8-1.5,11.1-8.2,9.7-15c-1.5-6.8-8.2-11.1-15-9.7C100.7,493.3,96.4,500,97.9,506.8
			 M49.4,312.1c8.5-12.3,5.3-29.2-7-37.6c-12.3-8.5-29.2-5.3-37.7,7s-5.3,29.2,7,37.6C24.1,327.5,41,324.4,49.4,312.1 M142,137.5
			c9.3-6.5,11.7-19.3,5.2-28.6c-6.5-9.3-19.3-11.7-28.6-5.2c-9.3,6.5-11.7,19.3-5.2,28.6C119.8,141.6,132.6,143.9,142,137.5
			 M203.3,11.4c-1.7-7.8-9.3-12.7-17.1-11c-7.8,1.7-12.7,9.3-11,17.1c1.7,7.8,9.3,12.7,17.1,11C200,26.8,205,19.1,203.3,11.4
			 M386.8,30.4c-7.6-12.7-24.1-16.8-36.9-9.2c-12.7,7.6-16.8,24.1-9.2,36.8c7.6,12.7,24.1,16.8,36.9,9.2
			C390.3,59.6,394.4,43.1,386.8,30.4 M518.7,222.4c2-26.6-4.6-54.1-21-77.8C465.7,98.4,407.4,81.4,357,99.7
			c-45.1-28.9-104.7-30.1-151.5,2.2c-23.7,16.4-40.6,38.9-50.1,63.9c-13.8,1.9-27.4,6.5-39.6,14.9c-40.4,27.9-51.1,82.3-25.4,123.6
			C55.6,336.2,47.6,389.2,74,430.2c15.7,24.3,40.3,38.9,66.8,43.3c0.5,19.8,6.4,39.7,18.6,57.3c33.1,48,98.9,60,146.9,26.8
			c1.8-1.3,3.2-2.9,5-4.2c26.7,23.9,66.9,27.8,97.7,6.5c16.4-11.3,26.9-27.9,31.5-45.8c24.1,0.9,48.6-5.2,70-20
			c51.2-35.4,65-104.6,32.2-156.8c26.3-22.2,32-61,11.8-89.6C545.3,234.9,532.6,226.5,518.7,222.4 M576.5,205.9
			c10.4-7.2,13-21.4,5.8-31.8c-7.2-10.4-21.4-13-31.8-5.8s-13,21.4-5.8,31.8C551.9,210.5,566.1,213.1,576.5,205.9 M620.9,339.8
			c-2-9.2-11-15-20.2-13.1c-9.2,2-15,11-13,20.2c2,9.2,11,15,20.2,13.1C617,358.1,622.8,349,620.9,339.8 M649.7,257.8
			c-1.5-6.8-8.2-11.2-15-9.7c-6.8,1.5-11.2,8.2-9.7,15c1.5,6.8,8.2,11.2,15.1,9.7C646.8,271.3,651.2,264.6,649.7,257.8"/>
	</g>
	<g>
		<defs>
			<rect id="SVGID_00000060718669438818198900000003602939024556280202_" x="-175.8" y="-189.5" width="1000" height="1000"/>
		</defs>
		<clipPath id="SVGID_00000160151792315416285900000009739738720582997636_">
			<use xlink:href="#SVGID_00000060718669438818198900000003602939024556280202_"  style="overflow:visible;"/>
		</clipPath>
		<path style="clip-path:url(#SVGID_00000160151792315416285900000009739738720582997636_);fill:#FFFFFF;" d="M457.3,426.8
			c-3.9-25-50.2-5.7-53-33.1c-4-38.8,53.7-122.5,49.1-155c-4.1-29.2-23.8-35.4-41-35.7c-16.7-0.3-21.1,2.4-26.7,5.6
			c-3.2,1.9-7.9,5.6-14.4-0.6c-4.3-4.1-7.2-7-11.7-10.6c-2.3-1.9-6-4.2-12.2-5.1c-6.2-0.9-14.2,0-19.3,2.2c-5.1,2.2-9.1,6-13.3,9.7
			c-4.2,3.6-14.8,15.5-24.7,11.2c-4.3-1.9-18.9-9.2-29.4-13.7c-20.3-8.8-49.5,5.4-60.1,24.2c-15.7,27.8-46.6,137.2-51.3,151.7
			c-10.5,32.4,13.3,58.8,45.4,57.3c13.6-0.6,22.6-5.6,31.2-21.2c5-9,51.5-130.6,55-136.5c2.5-4.2,10.9-9.8,18-6.2
			c7.1,3.6,8.5,11.2,7.5,18.4c-1.7,11.6-34.6,85.8-35.8,94.2c-2.1,14.3,4.6,22.2,19.5,23c10.2,0.5,20.3-3.1,28.3-18.3
			c4.5-8.5,56.3-112.2,60.9-119.1c5-7.6,9.1-10.1,14.2-9.8c4,0.2,10.4,1.2,8.8,13.1c-1.6,11.7-43.2,87.8-47.6,106.4
			c-5.8,24.9,7.8,50.1,30.4,61.2C399.5,447.1,462.4,459.2,457.3,426.8"/>
	</g>
</g>
</svg>
